<svg xmlns="http://www.w3.org/2000/svg" viewBox="0 0 512 512"><defs><style>.a{fill:#005ed0;}.b{fill:#646464;}.c{fill:#fff;}.d{fill:#c8c8c8;}</style></defs><circle class="a" cx="256" cy="256" r="256"/><path class="b" d="M75,410l41-234c37-149,249-139,281.22,0l39.31,234C344,516,178,525,75,410Z"/><circle cx="208" cy="178" r="17"/><circle cx="304" cy="178" r="17"/><path class="c" d="M299.57,438V329.88H329C335.37,395.87,326.57,427,299.57,438Z"/><path class="c" d="M213,438V329.88H183.53C177.19,395.87,186,427,213,438Z"/><path class="d" d="M300,227a72.14,72.14,0,0,0-43.5,14.24A72.14,72.14,0,0,0,213,227c-37.56,0-68,27.53-68,61.5S175.44,350,213,350a72.14,72.14,0,0,0,43.5-14.24A72.14,72.14,0,0,0,300,350c37.56,0,68-27.53,68-61.5S337.56,227,300,227Z"/><path d="M252.69,259.24C232.22,250.36,222.1,238,230.82,226a5,5,0,0,1,3.75-2.07,419.45,419.45,0,0,1,43.16,0,6.14,6.14,0,0,1,5,3c6.92,11.68-3.1,25.91-21.22,32.68A11.76,11.76,0,0,1,252.69,259.24Z"/><rect x="296" y="245" width="77" height="10" transform="translate(-47.66 81.65) rotate(-13)"/><rect x="296" y="285" width="77" height="10" transform="translate(73.81 -67.81) rotate(13)"/><rect x="139" y="245" width="77" height="10" transform="translate(294.21 533.52) rotate(-167)"/><rect x="139" y="285" width="77" height="10" transform="translate(415.69 532.64) rotate(167)"/></svg>